<?xml version="1.0" encoding="UTF-8"?>
<!DOCTYPE svg PUBLIC "-//W3C//DTD SVG 1.1//EN" "http://www.w3.org/Graphics/SVG/1.1/DTD/svg11.dtd">
<!-- Creator: CorelDRAW 2020 (64-Bit) -->
<svg xmlns="http://www.w3.org/2000/svg" xml:space="preserve" width="210px" height="80px" version="1.1" style="shape-rendering:geometricPrecision; text-rendering:geometricPrecision; image-rendering:optimizeQuality; fill-rule:evenodd; clip-rule:evenodd"
viewBox="0 0 210 80"
 xmlns:xlink="http://www.w3.org/1999/xlink"
 xmlns:xodm="http://www.corel.com/coreldraw/odm/2003">
 <defs>
  <style type="text/css">
   <![CDATA[
    .fil3 {fill:#2B2A29}
    .fil5 {fill:#FECC00}
    .fil1 {fill:#41321D}
    .fil4 {fill:#78B833}
    .fil2 {fill:#2A5628}
    .fil0 {fill:#41321D;fill-rule:nonzero}
    .fil6 {fill:#2A5628;fill-rule:nonzero}
   ]]>
  </style>
 </defs>
 <g id="Слой_x0020_1">
  <metadata id="CorelCorpID_0Corel-Layer"/>
  <path class="fil0" d="M47.091 57.574l4.355 0 0 1.481 -1.437 0 0 6.395 -1.525 0 0 -6.395 -1.393 0 0 -1.481zm9.089 -0.198c1.113,0 2.071,0.405 2.872,1.211 0.802,0.806 1.203,1.79 1.203,2.949 0,1.15 -0.395,2.123 -1.187,2.918 -0.789,0.795 -1.749,1.193 -2.878,1.193 -1.182,0 -2.164,-0.409 -2.945,-1.226 -0.782,-0.817 -1.174,-1.788 -1.174,-2.912 0,-0.752 0.183,-1.445 0.547,-2.077 0.364,-0.632 0.865,-1.132 1.501,-1.502 0.638,-0.369 1.326,-0.554 2.061,-0.554zm-0.023 1.471c-0.725,0 -1.336,0.254 -1.83,0.76 -0.495,0.506 -0.742,1.15 -0.742,1.933 0,0.87 0.311,1.559 0.934,2.065 0.485,0.397 1.039,0.595 1.666,0.595 0.708,0 1.311,-0.258 1.808,-0.772 0.499,-0.513 0.748,-1.146 0.748,-1.899 0,-0.75 -0.25,-1.385 -0.753,-1.904 -0.501,-0.519 -1.112,-0.778 -1.831,-0.778zm10.625 6.603l-2.185 -5.773 -2.218 5.773 -1.59 0 3.042 -7.876 1.521 0 3.033 7.876 -1.603 0zm2.497 0l0 -7.876 1.492 0 0 2.973 0.327 0c0.628,0 1.15,0.073 1.567,0.217 0.417,0.145 0.779,0.419 1.083,0.823 0.305,0.406 0.457,0.894 0.457,1.465 0,0.539 -0.13,0.996 -0.391,1.371 -0.262,0.374 -0.564,0.639 -0.909,0.795 -0.344,0.155 -0.818,0.232 -1.417,0.232l-2.209 0zm1.492 -3.565l0 2.139 0.379 0c0.625,0 1.044,-0.077 1.256,-0.23 0.212,-0.154 0.318,-0.417 0.318,-0.788 0,-0.748 -0.547,-1.121 -1.64,-1.121l-0.313 0zm4.759 -4.311l1.514 0 0 2.724 2.132 -2.724 1.808 0 -2.752 3.516 3.019 4.36 -1.779 0 -2.428 -3.508 0 3.508 -1.514 0 0 -7.876zm10.506 -0.198c1.113,0 2.071,0.405 2.872,1.211 0.802,0.806 1.203,1.79 1.203,2.949 0,1.15 -0.395,2.123 -1.187,2.918 -0.789,0.795 -1.749,1.193 -2.878,1.193 -1.183,0 -2.164,-0.409 -2.945,-1.226 -0.782,-0.817 -1.174,-1.788 -1.174,-2.912 0,-0.752 0.183,-1.445 0.547,-2.077 0.364,-0.632 0.865,-1.132 1.501,-1.502 0.638,-0.369 1.325,-0.554 2.061,-0.554zm-0.022 1.471c-0.726,0 -1.337,0.254 -1.831,0.76 -0.495,0.506 -0.742,1.15 -0.742,1.933 0,0.87 0.311,1.559 0.934,2.065 0.485,0.397 1.039,0.595 1.666,0.595 0.708,0 1.311,-0.258 1.808,-0.772 0.499,-0.513 0.748,-1.146 0.748,-1.899 0,-0.75 -0.25,-1.385 -0.753,-1.904 -0.501,-0.519 -1.112,-0.778 -1.83,-0.778zm8.58 -1.273l1.524 0 0 2.973 2.633 0 0 -2.973 1.514 0 0 7.876 -1.514 0 0 -3.455 -2.633 0 0 3.455 -1.524 0 0 -7.876zm9.88 0l1.51 0 3.031 7.876 -1.559 0 -0.615 -1.623 -3.228 0 -0.629 1.623 -1.56 0 3.05 -7.876zm0.757 2.094l-1.068 2.711 2.13 0 -1.062 -2.711zm7.507 -2.094l1.515 0 2.545 6.472 0.874 0 0 2.578 -1.448 0 0 -1.174 -5.441 0 0 1.174 -1.448 0 0 -2.578 0.876 0 2.527 -6.472zm0.771 2.071l-1.729 4.401 3.459 0 -1.73 -4.401zm5.139 -2.071l4.301 0 0 1.47 -2.809 0 0 1.415 2.809 0 0 1.448 -2.809 0 0 2.073 2.809 0 0 1.47 -4.301 0 0 -7.876zm9.171 4.381l-0.206 -0.231 -2.229 3.726 -1.779 0 2.924 -4.567 -2.661 -3.309 1.809 0 2.142 2.821 0 -2.821 1.525 0 0 2.81 2.121 -2.81 1.81 0 -2.637 3.315 2.9 4.561 -1.777 0 -2.21 -3.726 -0.207 0.231 0 3.495 -1.525 0 0 -3.495zm6.769 -4.381l1.524 0 0 2.973 2.633 0 0 -2.973 1.514 0 0 7.876 -1.514 0 0 -3.455 -2.633 0 0 3.455 -1.524 0 0 -7.876zm9.88 0l1.51 0 3.031 7.876 -1.559 0 -0.615 -1.623 -3.228 0 -0.629 1.623 -1.56 0 3.05 -7.876zm0.757 2.094l-1.068 2.711 2.13 0 -1.062 -2.711zm9.589 -2.094l0 7.876 -1.492 0 0 -3.181 -0.374 0 -1.591 3.181 -1.638 0 1.786 -3.428c-1.033,-0.294 -1.55,-0.982 -1.55,-2.06 0,-0.386 0.054,-0.721 0.162,-1.004 0.11,-0.285 0.263,-0.527 0.466,-0.724 0.202,-0.197 0.434,-0.344 0.701,-0.439 0.265,-0.093 0.475,-0.148 0.632,-0.162 0.157,-0.015 0.594,-0.033 1.311,-0.059l1.587 0zm-1.492 3.247l0 -1.777 -0.411 0c-0.375,0 -0.646,0.022 -0.81,0.068 -0.163,0.043 -0.298,0.141 -0.401,0.289 -0.104,0.147 -0.155,0.33 -0.155,0.548 0,0.324 0.104,0.55 0.311,0.68 0.207,0.128 0.539,0.192 0.994,0.192l0.472 0zm5.591 -3.247l4.355 0 0 1.481 -1.437 0 0 6.395 -1.525 0 0 -6.395 -1.393 0 0 -1.481zm5.386 0l4.3 0 0 1.47 -2.808 0 0 1.415 2.808 0 0 1.448 -2.808 0 0 2.073 2.808 0 0 1.47 -4.3 0 0 -7.876zm5.169 0l1.702 0 1.656 2.529 1.659 -2.529 1.704 0 -2.512 3.829 2.651 4.047 -1.702 0 -1.801 -2.749 -1.803 2.749 -1.704 0 2.656 -4.047 -2.506 -3.829zm7.975 0l1.525 0 0 2.973 2.633 0 0 -2.973 1.513 0 0 7.876 -1.513 0 0 -3.455 -2.633 0 0 3.455 -1.525 0 0 -7.876zm13.21 0l0 7.876 -1.492 0 0 -4.931 -2.968 4.931 -1.288 0 0 -7.876 1.491 0 0 5.092 3.013 -5.092 1.244 0zm1.81 0l1.513 0 0 2.724 2.132 -2.724 1.808 0 -2.751 3.516 3.018 4.36 -1.779 0 -2.428 -3.508 0 3.508 -1.513 0 0 -7.876zm9.199 0l1.511 0 3.031 7.876 -1.56 0 -0.614 -1.623 -3.229 0 -0.629 1.623 -1.559 0 3.049 -7.876zm0.757 2.094l-1.068 2.711 2.131 0 -1.063 -2.711z"/>
  <path class="fil1" d="M39.055 28.708c-0.219,0.513 -0.255,1.338 -0.396,1.948 -0.283,1.216 -0.385,0.738 0.154,1.807 0.573,1.135 0.941,2.34 1.142,3.702 0.793,5.361 -1.59,10.209 -5.852,13.064 -2.516,1.686 -3.086,0.997 -3.845,2.12 -0.392,0.579 -1.239,1.713 -1.419,2.215l1.426 1.521c0.783,0.896 0.45,0.98 1.973,0.492 1.465,-0.469 3.076,-1.146 4.197,-1.933 0.158,-0.885 -0.142,-2.612 -0.097,-3.636l1.239 -1.13c0.397,-0.393 0.704,-0.791 1.129,-1.239l3.648 0.143c0.808,-1.441 1.408,-2.588 1.961,-4.379 0.466,-1.504 0.187,-1.249 -0.663,-1.978l-1.701 -1.582 0.029 -3.469 1.588 -1.37c1.154,-1.092 1.326,-0.703 0.337,-3.341 -0.37,-0.985 -0.822,-1.864 -1.294,-2.717 -0.366,-0.661 -0.857,-0.402 -1.64,-0.365 -0.616,0.029 -1.366,0.004 -1.916,0.127z"/>
  <path class="fil1" d="M17.347 26.322l-1.206 1.129c-0.185,0.193 -0.391,0.339 -0.576,0.541 -0.243,0.265 -0.227,0.349 -0.553,0.661l-3.636 -0.135c-0.602,0.66 -1.669,3.277 -2.004,4.39 -0.493,1.64 -0.19,1.124 1.532,2.743 0.365,0.344 0.456,0.478 0.844,0.738 0.032,0.519 -0.06,1.132 -0.062,1.683 -0.014,2.82 0.567,1.05 -1.248,2.979 -0.431,0.459 -0.827,0.688 -1.302,1.216 0.005,0.739 0.983,3.531 1.398,3.897 0.335,-0.144 0.7,-0.406 1.057,-0.602 0.36,-0.199 0.706,-0.4 1.067,-0.607 0.722,-0.414 1.463,-0.808 2.153,-1.19 -0.766,-2.532 -1.481,-3.592 -1.15,-6.941 0.615,-6.226 5.78,-11.763 12.916,-11.921l0.255 -1.895 -1.737 0.056c-0.263,-0.431 -2.098,-2.285 -2.291,-2.65 -1.507,0.131 -3.85,1.236 -5.173,1.997 -0.53,0.304 -0.426,0.435 -0.38,1.112 0.045,0.684 0.188,2.205 0.096,2.799z"/>
  <path class="fil2" d="M14.741 44.602c-0.945,0.491 -7.743,4.4 -8.538,5.219 0.827,1.317 2.823,2.718 3.297,3.258 0.354,-0.127 4.53,-3.479 5.014,-3.849 0.979,-0.725 1.939,-1.394 3.003,-2.121 4.648,-3.176 11.157,-6.869 16.403,-8.97l3.635 -1.467 -0.118 -0.83c-5.077,0.309 -17.914,6.269 -22.696,8.76z"/>
  <path class="fil2" d="M13.184 55.304c0.616,0.376 3.446,1.55 4.253,1.508 0.819,-0.906 1.42,-1.761 2.238,-2.61 0.793,-0.823 1.504,-1.736 2.333,-2.514 0.973,-0.913 1.576,-1.603 2.422,-2.429 3.034,-2.963 7.356,-6.249 10.857,-8.639 0.499,-0.34 0.913,-0.61 1.475,-0.95 0.78,-0.472 1.013,-0.35 0.892,-1.572 -1.447,0.518 -5.594,2.785 -6.874,3.521 -2.8,1.609 -6.829,4.289 -9.347,6.315 -0.962,0.773 -2.01,1.592 -2.877,2.349 -1.763,1.538 -3.846,3.313 -5.372,5.021z"/>
  <path class="fil2" d="M21.679 57.517c1.968,0.083 2.02,0.026 4.147,-0.104 1.133,-2.549 3.725,-6.445 5.426,-8.612 1.55,-1.973 3.191,-3.869 4.927,-5.517 0.423,-0.401 0.506,-0.353 0.744,-1.034 0.161,-0.46 0.334,-0.91 0.389,-1.393 -0.596,0.263 -1.764,1.256 -2.335,1.692 -1.826,1.394 -4.819,4.073 -6.343,5.78 -1.069,1.197 -2.781,3.093 -3.726,4.393 -0.448,0.617 -3.085,4.179 -3.229,4.795z"/>
  <path class="fil1" d="M15.318 43.439c0.374,-0.096 0.748,-0.274 0.993,-0.519 -0.704,-2.133 -1.221,-3.366 -0.949,-5.969 0.533,-5.107 4.459,-9.31 9.517,-10.177 0.487,-0.083 1.226,-0.092 1.662,-0.214l0.006 -1.035c-2.182,-0.061 -4.499,0.782 -6.059,1.7 -4.565,2.684 -7.04,7.857 -6.089,13.144 0.224,1.243 0.613,2.045 0.919,3.07z"/>
  <path class="fil3" d="M31.318 49.955c2.85,-0.852 5.764,-3.739 7.006,-6.487 0.75,-1.662 1.225,-3.504 1.176,-5.583 -0.035,-1.481 -0.598,-4.395 -1.354,-5.371 -0.182,0.193 -0.422,0.746 -0.514,1.05 -0.227,0.75 2.024,4.115 -0.288,9.396 -0.84,1.919 -2.192,3.368 -3.588,4.427 -0.312,0.236 -0.688,0.433 -0.983,0.699l-1.455 1.869z"/>
  <path class="fil4" d="M28.146 37.791c-2.142,-1.398 -9.261,-3.443 -11.549,-3.072 -0.644,1.341 0.045,1.108 0.433,1.164 0.546,0.077 1.182,0.236 1.74,0.392 3.485,0.967 5.243,2.263 6.196,2.583 0.391,0.131 1.162,-0.283 1.594,-0.433 0.262,-0.09 1.432,-0.512 1.586,-0.634z"/>
  <path class="fil5" d="M32.736 10.075c-0.216,0.427 -0.187,0.905 -0.758,2.062 -0.565,1.144 -1.94,2.648 -1.044,4.046 0.671,1.047 2.438,1.581 3.604,0.007 0.97,-1.308 -0.579,-3.058 -1.039,-4.059 -0.578,-1.259 -0.358,-0.993 -0.637,-1.781 -0.13,-0.363 0.127,0.29 -0.058,-0.14 -0.008,-0.02 -0.026,-0.052 -0.033,-0.068 -0.008,-0.015 -0.022,-0.046 -0.035,-0.067z"/>
  <path class="fil4" d="M16.071 37.219c2.474,1.452 2.684,1.729 4.631,3.282 0.416,0.332 0.592,0.09 1.087,-0.131 0.453,-0.202 1.912,-0.751 2.159,-0.983 -1.327,-0.813 -5.849,-3.156 -7.494,-3.231 -0.37,-0.017 -0.382,0.299 -0.383,1.063z"/>
  <path class="fil5" d="M32.973 31.765c2.839,0.049 4.312,-3.4 4.118,-5.812 -1.181,2.164 -0.572,1.32 -2.607,2.307 -2.08,1.009 -1.435,1.672 -1.511,3.505z"/>
  <path class="fil5" d="M32.391 28.231c0.051,-1.928 0.383,-2.592 -1.509,-3.517 -0.661,-0.324 -1.152,-0.316 -1.643,-0.774 -0.58,-0.54 -0.596,-0.914 -0.972,-1.545 -0.12,2.394 1.112,5.755 4.124,5.836z"/>
  <path class="fil5" d="M32.985 28.225c3.118,-0.019 4.37,-3.897 4.092,-5.961 -0.451,2.571 -3.01,1.976 -3.972,3.494 -0.266,0.419 -0.141,1.886 -0.12,2.467z"/>
  <path class="fil5" d="M32.337 31.792c0.08,-0.357 0.124,-2.053 0.001,-2.358 -0.405,-1.003 -2.572,-1.487 -3.056,-1.898 -0.553,-0.469 -0.652,-0.893 -1.013,-1.495 -0.094,2.892 1.412,5.577 4.068,5.751z"/>
  <path class="fil5" d="M32.325 24.611c0.136,-0.387 0.152,-2.038 -0.065,-2.382 -0.662,-1.049 -2.452,-1.241 -3.111,-1.931 -0.529,-0.555 -0.558,-0.969 -0.87,-1.605 -0.189,1.364 0.457,3.094 0.955,4.044 0.41,0.781 1.173,1.438 1.987,1.749 0.106,0.041 0.365,0.127 0.515,0.154l0.589 -0.029z"/>
  <path class="fil5" d="M32.988 24.683c2.735,-0.046 4.157,-3.027 4.122,-5.856 -0.058,0.067 -0.054,0.056 -0.122,0.174l-0.307 0.639c-0.676,1.248 -1.285,1.097 -2.189,1.54 -0.441,0.216 -1.124,0.655 -1.378,1.042 -0.241,0.369 -0.15,1.935 -0.126,2.461z"/>
  <path class="fil5" d="M32.375 21.146c0.117,-1.66 0.403,-2.811 -1.761,-3.618 -2.248,-0.838 -1.484,-1.38 -2.347,-2.957 -0.056,2.89 1.25,6.598 4.108,6.575z"/>
  <path class="fil5" d="M33.012 21.194c3.084,-0.086 4.257,-4.454 4.075,-6.791 -0.603,2.141 -0.691,2.485 -2.266,3.095 -2.168,0.84 -1.976,1.759 -1.809,3.696z"/>
  <path class="fil4" d="M16.971 42.562c0.497,-0.042 2.385,-1.148 3.102,-1.395 -0.18,-0.478 -1.425,-1.458 -1.858,-1.821 -0.5,-0.419 -1.615,-1.344 -2.188,-1.57 -0.051,1.502 0.285,3.693 0.944,4.786z"/>
  <path class="fil5" d="M37.098 29.965c-0.145,0.12 -0.476,0.699 -0.721,0.929 -0.403,0.377 -0.741,0.441 -1.084,0.599 -0.879,0.266 -1.355,0.511 -1.971,1.099 -0.51,0.487 -0.386,1.717 -0.352,2.738 2.679,-0.098 4.311,-2.764 4.128,-5.365z"/>
  <path class="fil5" d="M36 14.107c0.332,-0.261 0.195,-0.972 0.195,-1.773 0,-1.14 0.082,-5.572 -0.068,-6.094l-0.345 -0.013c-0.13,0.671 -0.044,4.859 -0.044,6.107 0,1.162 -0.181,1.627 0.262,1.773z"/>
  <path class="fil5" d="M29.293 6.553l-0.005 7.001c0.012,0.459 -0.01,0.509 0.375,0.55 0.24,-1.279 0.087,-5.93 0.085,-7.551 0,-0.293 -0.043,-0.236 -0.277,-0.308 -0.161,0.125 -0.178,0.018 -0.178,0.308z"/>
  <path class="fil5" d="M32.891 9.303l0.07 -2.75c0,-0.438 0.006,-0.192 -0.225,-0.316 -0.267,0.142 -0.108,-0.051 -0.205,0.224l-0.027 2.147c-0.005,0.6 -0.075,0.6 0.387,0.695z"/>
  <path class="fil5" d="M28.248 29.965c0.145,0.12 0.476,0.699 0.721,0.929 0.403,0.377 0.742,0.441 1.085,0.599 0.878,0.266 1.354,0.511 1.97,1.099 0.51,0.487 0.387,1.717 0.352,2.738 -2.679,-0.098 -4.311,-2.764 -4.128,-5.365z"/>
  <path class="fil6" d="M68.19 32.522l-4.582 0 0 17.362 -5.707 0 0 -17.362 -4.555 0 0 -1.929 14.844 0 0 1.929zm15.476 17.362l-13.209 0 0 -19.291 12.083 0 0 1.929 -6.698 0 0 6.002 5.332 0 0 1.741 -5.332 0 0 7.69 7.824 0 0 1.929zm17.136 0l-6.028 0 -3.537 -6.778 -3.965 6.778 -2.438 0 5.278 -8.815 -5.627 -10.476 5.975 0 3.296 6.296 3.617 -6.296 2.331 0 -4.823 8.279 5.921 11.012zm17.459 0l-5.386 0 0 -9.619 -4.421 0 0 9.619 -5.385 0 0 -19.291 5.385 0 0 7.931 4.421 0 0 -7.931 5.386 0 0 19.291zm19.842 -9.672c0,6.68 -2.759,10.02 -8.279,10.02 -5.501,0 -8.252,-3.411 -8.252,-10.235 0,-6.483 2.814,-9.726 8.44,-9.726 5.395,0 8.091,3.314 8.091,9.941zm-5.626 0c0,-4.966 -0.482,-7.69 -1.447,-8.173 -0.322,-0.16 -0.723,-0.241 -1.206,-0.241 -0.464,0 -0.857,0.081 -1.178,0.241 -0.947,0.483 -1.42,3.207 -1.42,8.173 0,5.001 0.473,7.743 1.42,8.225 0.321,0.161 0.714,0.242 1.178,0.242 0.483,0 0.884,-0.081 1.206,-0.242 0.965,-0.482 1.447,-3.224 1.447,-8.225zm21.129 -7.69l-4.582 0 0 17.362 -5.707 0 0 -17.362 -4.554 0 0 -1.929 14.843 0 0 1.929zm17.298 7.69c0,6.68 -2.76,10.02 -8.279,10.02 -5.502,0 -8.253,-3.411 -8.253,-10.235 0,-6.483 2.814,-9.726 8.44,-9.726 5.394,0 8.092,3.314 8.092,9.941zm-5.627 0c0,-4.966 -0.482,-7.69 -1.447,-8.173 -0.321,-0.16 -0.723,-0.241 -1.205,-0.241 -0.465,0 -0.858,0.081 -1.18,0.241 -0.946,0.483 -1.42,3.207 -1.42,8.173 0,5.001 0.474,7.743 1.42,8.225 0.322,0.161 0.715,0.242 1.18,0.242 0.482,0 0.884,-0.081 1.205,-0.242 0.965,-0.482 1.447,-3.224 1.447,-8.225zm23.835 -3.966c0,3.823 -2.536,5.734 -7.605,5.734l-1.88 0 0 7.904 -5.385 0 0 -19.291 8.011 0c4.573,0 6.859,1.884 6.859,5.653zm-5.305 -0.107c0,-2.519 -0.987,-3.778 -2.965,-3.778l-1.215 0 0 7.851 1.215 0c1.978,0 2.965,-1.358 2.965,-4.073zm20.165 -3.617l-6.779 0 0 17.362 -5.385 0 0 -19.291 12.164 0 0 1.929z"/>
 </g>
</svg>
